<svg id="Livello_1" data-name="Livello 1" xmlns="http://www.w3.org/2000/svg" width="36" height="35.99" viewBox="0 0 36 35.99"><defs><style>.cls-1{fill:#000000;}</style></defs><title>cake_icon_36_alt</title><path id="Forma_19" data-name="Forma 19" class="cls-1" d="M32.55,14.47a16.06,16.06,0,0,0-10.13-7.6A4.69,4.69,0,0,0,23,4.7,5,5,0,0,0,17.9,0a4.91,4.91,0,0,0-4.7,4.7,4.8,4.8,0,0,0,.54,2.17,16,16,0,0,0-10.12,7.6A4.63,4.63,0,0,0,0,19,4.43,4.43,0,0,0,1.81,22.6a6,6,0,0,0,1.63.73h.9L6.69,34.72A1.75,1.75,0,0,0,8.32,36H28.57a1.74,1.74,0,0,0,1.63-1.27l2.35-11.39h0a6.16,6.16,0,0,0,1.63-.73A4.73,4.73,0,0,0,36,19,4.34,4.34,0,0,0,32.55,14.47ZM18.08,3.07A1.48,1.48,0,0,1,19.53,4.7,1.48,1.48,0,0,1,17.9,6.15,1.55,1.55,0,0,1,16.46,4.7a1.62,1.62,0,0,1,1.62-1.63ZM5.24,17.18a.67.67,0,0,1,.55.18,18.08,18.08,0,0,1,1.44-2.53,13.57,13.57,0,0,1,19-2.71,9.45,9.45,0,0,1,2.71,2.71,11.19,11.19,0,0,1,1.45,2.53c.18,0,.36-.18.54-.18a1.62,1.62,0,0,1,1.63,1.63,1.71,1.71,0,0,1-1.45,1.62h-26a1.73,1.73,0,0,1-1.44-1.62,1.62,1.62,0,0,1,1.62-1.63ZM27.31,33.09H9.77l-2-9.58H29.3Z"/></svg>