<svg id="Livello_1" data-name="Livello 1" xmlns="http://www.w3.org/2000/svg" width="36" height="31.46" viewBox="0 0 36 31.46"><defs><style>.cls-1{fill:#000000;}</style></defs><title>comment_icon_36_alt</title><g id="Shape_2_copy_4" data-name="Shape 2 copy 4"><path class="cls-1" d="M19.13,33.73l-.75-2.57a16.66,16.66,0,0,0,2.57-2,20.61,20.61,0,0,1-8.62-.45,19.43,19.43,0,0,1-7-3.18,13.33,13.33,0,0,1-4.24-5A9.13,9.13,0,0,1-.08,15.88a16.79,16.79,0,0,1,.31-2.72C2,6.81,9.3,2.27,17.62,2.27h.46a23.28,23.28,0,0,1,9.07,2,16.6,16.6,0,0,1,3.18,1.81A18.55,18.55,0,0,1,32.9,8.32a11.29,11.29,0,0,1,2.87,6h0a7.38,7.38,0,0,1,.15,1.81,15.78,15.78,0,0,1-1.51,6.51C31.54,28.74,25.18,33.43,19.13,33.73ZM23.07,26a1.87,1.87,0,0,1,1.51.75,2.88,2.88,0,0,1,.3,1.06,2.17,2.17,0,0,1-.3.91c-.15.3-.3.45-.45.76a17.29,17.29,0,0,0,7.71-8A13,13,0,0,0,33.05,16a4.24,4.24,0,0,0-.15-1.36A9.7,9.7,0,0,0,30.63,10a11.37,11.37,0,0,0-2-1.81,22.31,22.31,0,0,0-2.72-1.51,20.52,20.52,0,0,0-8-1.67h-.45C10.51,5,4.31,8.62,3,13.76a10.41,10.41,0,0,0-.3,2.12,9,9,0,0,0,.75,3.48,10.13,10.13,0,0,0,3.48,4.09,14.78,14.78,0,0,0,6.05,2.72,21.1,21.1,0,0,0,9.68,0Z" transform="translate(0.08 -2.27)"/></g></svg>