<?xml version="1.0" encoding="utf-8"?>
<!-- Generator: Adobe Illustrator 22.0.1, SVG Export Plug-In . SVG Version: 6.00 Build 0)  -->
<svg version="1.1" id="Livello_1" xmlns="http://www.w3.org/2000/svg" xmlns:xlink="http://www.w3.org/1999/xlink" x="0px" y="0px"
	 viewBox="0 0 36 36" style="enable-background:new 0 0 36 36;" xml:space="preserve" preserveAspectRatio="xMinYMid">
<g>
	<g>
		<path style="fill:#000000;" d="M14.6,19.6c-0.4,0-0.9-0.3-0.9-0.8l0,0L12,11.7c0-0.3,0-0.5,0.1-0.8c0.1-0.3,0.4-0.4,0.6-0.4
			c0.1,0,0.1,0,0.3,0c0.5,0,0.9,0.3,0.9,0.8l1.8,7.1c0.1,0.5-0.1,1-0.8,1.1C14.9,19.5,14.7,19.6,14.6,19.6L14.6,19.6z"/>
	</g>
	<g>
		<path style="fill:#000000;" d="M21.2,19.5c-0.4-0.3-0.6-0.6-0.5-1.1l0,0l1.8-7.1c0-0.3,0.3-0.5,0.4-0.6c0.3-0.1,0.5-0.1,0.8-0.1
			c0.1,0,0.1,0,0.3,0.1c0.4,0.3,0.6,0.6,0.5,1.1l-1.8,7.1c-0.1,0.5-0.6,0.9-1.1,0.8C21.4,19.6,21.4,19.6,21.2,19.5L21.2,19.5z"/>
	</g>
	<g id="Forma_25">
		<path style="fill:#000000;" d="M8.7,35c-0.9,0-1.6-0.8-1.6-1.6v-7.8c-1.3-0.5-2.5-1.3-3.5-2.3c-1.3-1.3-2.3-2.9-2.8-4.6
			c-1-2.6-1.1-5.5-0.3-8.3C1.2,8,2.8,5.9,5.2,4.7C6.2,4.2,7.3,4,8.5,4l0,0c0.8,0,1.4,0.1,2.1,0.3c0.9-0.9,2-1.6,3.1-2.3
			c1.4-0.6,2.9-1,4.3-1c1.5,0,3,0.4,4.4,1c1.1,0.6,2.3,1.4,3.1,2.3c0.8-0.3,1.4-0.4,2.1-0.4c1.1,0,2.3,0.3,3.3,0.8
			c2.3,1.3,4,3.4,4.6,5.9c0.8,2.8,0.6,5.5-0.3,8.3c-0.5,1.8-1.5,3.3-2.8,4.6c-1,1-2.1,1.8-3.5,2.3v7.8c0,0.9-0.8,1.6-1.6,1.6L8.7,35
			C8.7,35,8.7,35,8.7,35z M8.5,5.2c-0.9,0-1.9,0.3-2.6,0.6c-2,1-3.4,2.9-3.9,5c-0.8,2.5-0.6,5,0.3,7.5c0.5,1.5,1.4,3,2.5,4.1
			c0.9,1,2.1,1.6,3.4,2l0.5,0.1v8.8c0,0.1,0.1,0.3,0.3,0.3l0,0h18.6c0.1,0,0.3-0.1,0.4-0.3v-8.6l0.5-0.1c1.3-0.4,2.4-1.1,3.4-2
			c1.1-1.1,2-2.6,2.5-4.1c0.9-2.4,1-5,0.3-7.5c-0.5-2.1-2-4-3.9-5c-0.8-0.4-1.8-0.6-2.6-0.6c-0.8,0-1.5,0.1-2.1,0.4l-0.4,0.1
			l-0.6-0.4c-0.9-1-1.9-1.8-3-2.3c-1.1-0.6-2.5-0.9-3.8-0.9c-1.3,0-2.6,0.3-3.8,0.9c-1.1,0.5-2.3,1.4-3.1,2.3L11,5.9l-0.4-0.1
			C9.8,5.4,9.2,5.2,8.5,5.2L8.5,5.2z"/>
	</g>
</g>
</svg>
