<?xml version="1.0" encoding="utf-8"?>
<!-- Generator: Adobe Illustrator 22.0.1, SVG Export Plug-In . SVG Version: 6.00 Build 0)  -->
<svg version="1.1" id="Livello_1" xmlns="http://www.w3.org/2000/svg" xmlns:xlink="http://www.w3.org/1999/xlink" x="0px" y="0px"
	 viewBox="0 0 36 36" style="enable-background:new 0 0 36 36;" xml:space="preserve" preserveAspectRatio="xMinYMid">
<path id="Forma_26" style="fill:#000000;" d="M31.7,34.5C30,31,27,28.3,23.4,26.9v-2.2c1.8-0.1,5.1-0.6,7.1-2.6
	c0.2-0.3,0.3-0.6,0.3-1c-0.1-0.4-0.4-0.6-0.7-0.7c0,0-2.6-0.9-2.1-6.3c0.2-2,0.2-4.1-0.1-6.1c-0.2-1.7-0.9-3.4-2-4.7
	c-1.1-1.2-2.6-1.8-4.2-1.8h-0.2c-1.2-1-2.7-1.5-4.2-1.5c-1.1,0-2.1,0.2-3.1,0.6l0,0c-1.5,0.5-2.8,1.4-3.7,2.7
	c-1.5,2.1-2.3,5.1-2.2,9.1S7.6,18.4,7,19.3c-0.2,0.4-0.6,0.8-1,1c-0.4,0-0.7,0.2-0.9,0.5C5,21.2,5,21.6,5.2,21.9
	c0.5,0.7,1.2,1.2,1.9,1.5c1.7,0.9,3.5,1.3,5.4,1.3v2.1C8.9,28.3,6,31,4.3,34.5c-0.1,0.3-0.1,0.7,0.1,1C4.6,35.8,4.9,36,5.2,36h25.5
	c0.4,0,0.7-0.2,0.9-0.5C31.8,35.2,31.8,34.8,31.7,34.5z M7,33.9c1.6-2.5,4.1-4.4,6.9-5.4c0.4-0.1,0.7-0.5,0.7-1v-3.8
	c0-0.6-0.5-1-1-1c0,0,0,0,0,0c-2,0.1-3.9-0.3-5.7-1.2C8,21.4,8,21.4,8.1,21.3c1.5-1.6,2.2-4.5,2.1-8.9c-0.2-8,3.2-9.3,4.6-9.8l0,0
	c0.8-0.3,1.6-0.5,2.4-0.5c1.1,0,2.2,0.4,3,1.2c0.2,0.3,0.5,0.4,0.9,0.4c0.2,0,0.3,0,0.5,0c1,0,2,0.4,2.6,1.1c1.4,1.6,2,5,1.6,9.3
	c-0.4,4.3,0.9,6.5,2.1,7.5c-1.7,0.8-3.6,1.2-5.4,1.2h-0.2c-0.6,0-1,0.4-1.1,1c0,0,0,0,0,0v3.9c0,0.4,0.3,0.8,0.7,1
	c2.9,0.9,5.3,2.8,6.9,5.3L7,33.9L7,33.9L7,33.9z"/>
</svg>
