<svg version="1.1" id="Livello_1" xmlns="http://www.w3.org/2000/svg" xmlns:xlink="http://www.w3.org/1999/xlink" x="0px" y="0px" viewBox="0 0 40 40" style="enable-background:new 0 0 40 40;" xml:space="preserve"><circle style="fill:#BD081C;" cx="20" cy="20" r="20"/><path style="fill:#FFFFFF;" d="M20.6,8c-6.5,0-9.9,4.7-9.9,8.6c0,2.4,0.9,4.5,2.8,5.3c0.3,0.1,0.6,0,0.7-0.3c0.1-0.2,0.2-0.9,0.3-1.1c0.1-0.3,0.1-0.5-0.2-0.8c-0.6-0.7-0.9-1.5-0.9-2.7c0-3.5,2.6-6.6,6.8-6.6c3.7,0,5.7,2.3,5.7,5.3c0,4-1.8,7.3-4.4,7.3c-1.4,0-2.5-1.2-2.2-2.7c0.4-1.7,1.2-3.6,1.2-4.9c0-1.1-0.6-2.1-1.9-2.1c-1.5,0-2.7,1.5-2.7,3.6c0,1.3,0.4,2.2,0.4,2.2s-1.5,6.4-1.8,7.5c-0.5,2.2-0.1,5,0,5.2c0,0.2,0.2,0.2,0.3,0.1c0.1-0.2,1.9-2.3,2.5-4.5c0.2-0.6,1-3.8,1-3.8c0.5,0.9,1.9,1.7,3.4,1.7c4.4,0,7.4-4,7.4-9.4C29.3,11.8,25.8,8,20.6,8z"/></svg>
