<?xml version="1.0" standalone="no"?>
<!DOCTYPE svg PUBLIC "-//W3C//DTD SVG 20010904//EN"
 "http://www.w3.org/TR/2001/REC-SVG-20010904/DTD/svg10.dtd">
<svg version="1.0" xmlns="http://www.w3.org/2000/svg"
 width="512.000000pt" height="512.000000pt" viewBox="0 0 512.000000 512.000000"
 preserveAspectRatio="xMidYMid meet">
<metadata>
Created by potrace 1.11, written by Peter Selinger 2001-2013
</metadata>
<g transform="translate(0.000000,512.000000) scale(0.100000,-0.100000)"
fill="#000000" stroke="none">
<path d="M2195 4850 c-4 -6 -2 -16 3 -23 52 -67 102 -218 102 -309 0 -62 -25
-151 -62 -220 -25 -47 -36 -58 -57 -59 -14 0 -35 -2 -46 -4 -25 -4 -126 -16
-180 -21 -125 -12 -259 -87 -301 -167 -32 -60 -10 -150 49 -206 22 -20 24 -27
15 -50 -5 -14 -13 -54 -16 -89 l-7 -64 -70 -27 c-225 -89 -321 -160 -359 -267
-16 -46 -7 -128 19 -167 15 -24 14 -25 -22 -52 -43 -31 -90 -79 -127 -128 -45
-59 -115 -215 -116 -257 0 -8 -28 -33 -62 -55 -125 -80 -176 -160 -142 -226
20 -40 84 -78 209 -123 17 -6 13 -11 -26 -34 -71 -42 -105 -75 -118 -114 -15
-47 -1 -79 48 -106 37 -21 149 -44 165 -35 4 3 5 -5 1 -18 -31 -98 6 -154 123
-185 37 -9 69 -19 71 -20 2 -2 8 -25 13 -51 5 -26 11 -57 14 -68 2 -11 6 -31
9 -45 3 -14 12 -59 20 -100 8 -41 17 -86 20 -100 3 -14 9 -47 15 -75 13 -64
19 -94 25 -125 2 -14 14 -70 24 -125 11 -54 19 -99 18 -100 -1 0 -24 -7 -52
-14 -41 -10 -50 -10 -54 1 -2 7 -20 28 -40 45 -75 70 -169 25 -143 -69 l9 -33
-48 -1 c-81 -1 -113 -51 -69 -107 11 -14 36 -32 55 -38 39 -15 40 -16 20 -43
-52 -69 32 -134 128 -101 21 7 38 11 38 9 1 -2 2 -8 3 -13 5 -37 84 -100 125
-101 13 -1 12 -4 -4 -18 -31 -26 -60 -74 -63 -103 -4 -32 38 -79 73 -80 14 -1
31 -2 38 -3 22 -3 102 26 134 50 l31 24 52 -35 c63 -42 122 -47 164 -14 33 26
36 91 6 129 -25 32 -25 40 0 40 34 0 100 39 112 65 8 19 19 25 43 25 26 0 33
-5 44 -35 6 -19 23 -43 37 -54 l24 -19 -35 -22 c-70 -43 -100 -119 -65 -163
38 -47 156 -50 242 -6 45 23 48 23 48 5 0 -23 51 -77 86 -92 54 -23 116 -1
151 53 22 33 25 118 7 155 -19 36 -18 38 14 38 76 1 172 78 163 132 0 4 8 12
19 18 17 9 21 5 38 -33 19 -43 66 -90 109 -110 23 -10 23 -10 4 -31 -54 -57
-61 -145 -15 -184 22 -19 35 -23 70 -18 47 5 93 26 113 50 20 23 34 19 53 -14
43 -76 138 -90 191 -28 25 29 28 40 25 91 l-3 57 51 0 c63 0 100 17 118 54 37
75 -75 180 -197 185 -12 1 -17 7 -15 18 2 13 24 21 85 33 81 16 81 16 110 -7
15 -13 51 -30 78 -39 61 -20 57 -16 47 -45 -12 -31 4 -99 30 -126 11 -12 38
-25 60 -28 54 -9 108 26 134 88 l18 44 45 -23 c62 -34 115 -32 152 5 52 53 28
132 -59 192 l-22 16 21 27 c20 25 22 26 45 11 48 -31 132 -8 135 38 0 6 2 21
4 31 2 11 -2 35 -10 53 -14 32 -10 39 18 34 20 -3 79 34 91 58 18 34 13 59
-18 89 -20 20 -38 27 -85 30 -44 3 -58 8 -54 18 8 22 -17 83 -44 104 -42 33
-101 1 -123 -66 -15 -43 -30 -44 -25 -1 2 17 6 61 10 97 3 36 8 85 11 110 3
25 7 65 9 90 3 25 7 65 10 90 3 25 7 72 10 105 21 213 20 211 78 249 205 131
306 329 272 532 -24 140 -85 257 -194 366 -213 215 -202 202 -196 234 9 48 7
148 -4 177 -6 15 -9 27 -6 27 8 0 -34 129 -60 180 -110 220 -328 397 -612 496
l-81 28 -27 71 c-15 38 -36 82 -46 97 -11 14 -19 29 -19 33 0 3 -24 36 -54 73
-145 182 -387 364 -704 529 -86 45 -106 50 -117 33z"/>
</g>
</svg>
