<svg version="1.1" id="Livello_1" xmlns="http://www.w3.org/2000/svg" xmlns:xlink="http://www.w3.org/1999/xlink" x="0px" y="0px" viewBox="0 0 40 40" style="enable-background:new 0 0 40 40;" xml:space="preserve"><circle style="fill:#FF0000;" cx="20" cy="20" r="20"/><path style="fill:#FFFFFF;" d="M32.8,13.6c-0.3-1.1-1.2-2.1-2.4-2.4C28.4,10.7,20,10.7,20,10.7s-8.3,0-10.4,0.6c-1.1,0.3-2.1,1.2-2.4,2.4C6.6,15.7,6.6,20,6.6,20s0,4.3,0.6,6.4c0.3,1.1,1.2,2.1,2.4,2.4c2.1,0.6,10.4,0.6,10.4,0.6s8.4,0,10.4-0.6c1.1-0.3,2.1-1.2,2.4-2.4c0.6-2.1,0.6-6.4,0.6-6.4S33.4,15.7,32.8,13.6z"/><polygon style="fill:#FF0000;" points="17.3,24 24.3,20 17.3,16 	"/></svg>
